<svg width="132" height="38" viewBox="0 0 132 38" fill="none" xmlns="http://www.w3.org/2000/svg">
<path d="M41.5 36.38C39.0427 36.38 36.9907 36.038 35.344 35.354C34.4827 35.0247 33.8113 34.67 33.33 34.29L35.04 31.25H35.42C35.7493 31.5287 36.2053 31.82 36.788 32.124C38.004 32.6813 39.448 32.96 41.12 32.96C42.6147 32.96 43.742 32.618 44.502 31.934C45.2873 31.25 45.68 30.3253 45.68 29.16C45.68 28.4253 45.4647 27.792 45.034 27.26C44.6033 26.7027 44.0587 26.234 43.4 25.854C42.7413 25.4487 41.842 24.98 40.702 24.448C39.182 23.7387 37.9407 23.08 36.978 22.472C36.0153 21.8387 35.192 21.0153 34.508 20.002C33.8493 18.9887 33.52 17.7347 33.52 16.24C33.52 14.8973 33.8747 13.6813 34.584 12.592C35.2933 11.4773 36.3193 10.6033 37.662 9.97C39.0047 9.33666 40.6007 9.02 42.45 9.02C44.6793 9.02 46.6173 9.37467 48.264 10.084C48.9987 10.3627 49.6573 10.7047 50.24 11.11L48.53 14.15H48.15C47.8713 13.922 47.4407 13.6433 46.858 13.314C45.642 12.7313 44.2993 12.44 42.83 12.44C41.7153 12.44 40.7653 12.7947 39.98 13.504C39.22 14.188 38.84 14.9733 38.84 15.86C38.84 16.5947 39.0553 17.2407 39.486 17.798C39.9167 18.33 40.4613 18.7987 41.12 19.204C41.7787 19.584 42.678 20.04 43.818 20.572C45.338 21.2813 46.5793 21.9527 47.542 22.586C48.5047 23.194 49.3153 24.0047 49.974 25.018C50.658 26.0313 51 27.2853 51 28.78C51 30.2493 50.6327 31.5667 49.898 32.732C49.1887 33.872 48.112 34.7713 46.668 35.43C45.2493 36.0633 43.5267 36.38 41.5 36.38Z" fill="#FFC691"/>
<path d="M64.8759 36.38C61.4306 36.38 58.7959 35.278 56.9719 33.074C55.1479 30.87 54.2359 27.412 54.2359 22.7C54.2359 18.0133 55.1226 14.568 56.8959 12.364C58.6946 10.1347 61.2279 9.02 64.4959 9.02C66.4213 9.02 68.1439 9.37467 69.6639 10.084C70.3479 10.3627 70.9686 10.7047 71.5259 11.11L69.8159 14.15H69.4359C69.1573 13.8967 68.7519 13.618 68.2199 13.314C67.1053 12.7313 65.9906 12.44 64.8759 12.44C63.2039 12.44 61.8993 13.2127 60.9619 14.758C60.0246 16.3033 59.5559 18.9507 59.5559 22.7C59.5559 26.4747 60.0373 29.1347 60.9999 30.68C61.9879 32.2 63.4066 32.96 65.2559 32.96C66.4213 32.96 67.5359 32.6813 68.5999 32.124C69.1573 31.7947 69.5626 31.5033 69.8159 31.25H70.1959L71.9059 34.29C71.3993 34.6953 70.7786 35.05 70.0439 35.354C68.5746 36.038 66.8519 36.38 64.8759 36.38ZM75.3319 10.92L76.8519 9.4H80.6519V18.33C80.9052 18.0767 81.2725 17.798 81.7539 17.494C82.7672 16.9113 83.7932 16.62 84.8319 16.62C87.1372 16.62 88.9105 17.2533 90.1519 18.52C91.4185 19.7613 92.0519 21.5347 92.0519 23.84V36H86.7319V23.84C86.7319 22.6493 86.4785 21.75 85.9719 21.142C85.4652 20.534 84.7685 20.23 83.8819 20.23C83.0459 20.23 82.2479 20.61 81.4879 21.37C81.2345 21.674 80.9559 22.054 80.6519 22.51V36H75.3319V10.92ZM103.079 36.38C100.85 36.38 99.1146 35.848 97.8733 34.784C96.6573 33.6947 96.0493 32.2633 96.0493 30.49C96.0493 28.59 96.7333 27.108 98.1013 26.044C99.4946 24.9547 101.661 24.41 104.599 24.41H107.259V23.84C107.259 22.4973 106.968 21.5347 106.385 20.952C105.803 20.344 104.891 20.04 103.649 20.04C102.585 20.04 101.61 20.2933 100.723 20.8C100.369 20.9773 100.014 21.2307 99.6593 21.56H99.2793L97.5693 18.52C98.1773 18.1147 98.7726 17.798 99.3553 17.57C101.002 16.9367 102.56 16.62 104.029 16.62C105.803 16.62 107.335 16.9367 108.627 17.57C109.919 18.178 110.895 19.0267 111.553 20.116C112.237 21.2053 112.579 22.4467 112.579 23.84V36H108.779L108.399 33.72H108.209C107.779 34.2773 107.348 34.7207 106.917 35.05C105.853 35.9367 104.574 36.38 103.079 36.38ZM104.029 32.77C104.815 32.77 105.587 32.39 106.347 31.63C106.702 31.2753 107.006 30.8953 107.259 30.49V27.83H104.599C102.446 27.83 101.369 28.7167 101.369 30.49C101.369 31.174 101.597 31.7313 102.053 32.162C102.535 32.5673 103.193 32.77 104.029 32.77ZM125.121 36.38C122.942 36.38 121.219 35.7847 119.953 34.594C118.711 33.4033 118.091 31.8453 118.091 29.92V20.42H115.621V18.14L121.321 12.44H123.411V17H127.781V20.42H123.411V29.92C123.411 30.9333 123.601 31.6933 123.981 32.2C124.361 32.7067 124.867 32.96 125.501 32.96C126.261 32.96 127.008 32.7067 127.743 32.2C128.072 31.972 128.401 31.7187 128.731 31.44H129.111L130.821 34.48C130.162 34.9107 129.592 35.2273 129.111 35.43C127.743 36.0633 126.413 36.38 125.121 36.38Z" fill="white"/>
<path d="M4.42212 25.0277C8.53416 35.2537 28.6173 37.8822 30.3367 36.7596C29.1588 36.173 22.4973 32.7514 26.2139 25.0277C27.9408 28.4369 34.9315 26.9612 27.9808 20.9214C32.4917 -9.47286 -4.4688 1.60073 2.65522 20.3349C-4.05534 29.1667 4.02162 26.8269 4.42212 25.0277Z" fill="white"/>
<circle cx="20" cy="13" r="2" fill="black"/>
<circle cx="20" cy="13" r="2" fill="black"/>
<circle cx="8" cy="8" r="2" fill="black"/>
<circle cx="8" cy="8" r="2" fill="black"/>
<path d="M15.9438 18.3838C15.1914 20.4609 13.1082 21.6111 11.2908 20.9528C9.47333 20.2945 8.60986 18.0771 9.36218 16C11.0076 16.596 10.8355 16.5337 12.653 17.1919C14.4704 17.8502 13.7499 17.5892 15.9438 18.3838Z" fill="black"/>
</svg>
